#!OML:ASF F:\VICON\USERDATA\INSTALL\rory3\rory3.ASF
:FULLY-SPECIFIED
:DEGREES
574
root 1.47118 17.8939 5.11719 -2.94541 -29.8817 360.852
lowerback 19.0032 -1.49999 -4.20487
upperback 1.03056 -2.70214 2.15355
thorax -9.23996 -1.07533 5.47345
lowerneck -9.43469 -6.6014 -5.47157
upperneck 20.9617 -8.64068 1.49707
head 8.37118 -4.41736 0.519088
rclavicle -6.75868e-014 -1.35174e-014
rhumerus -54.7945 -34.4943 -33.0591
rradius 129.325
rwrist -25.1734
rhand 15.6791 1.53148
rfingers 7.12502
rthumb 40.4905 -23.5447
lclavicle -6.75868e-014 -1.35174e-014
lhumerus -53.1967 10.0391 72.0262
lradius 49.4321
lwrist 12.8655
lhand -11.3232 52.4104
lfingers 7.12502
lthumb 14.7092 81.8686
rfemur -15.9483 -14.9897 20.0849
rtibia 49.3473
rfoot -21.4413 -19.6125
rtoes 11.3035
lfemur -8.98234 2.17297 -25.3855
ltibia 32.5054
lfoot -18.0226 19.5074
ltoes 2.11249
575
root 1.45582 17.8992 5.12254 -2.98903 -30.7117 361.024
lowerback 18.8514 -1.64544 -4.22594
upperback 0.880836 -2.89822 2.1136
thorax -9.29883 -1.1634 5.48878
lowerneck -9.2131 -6.56461 -5.72269
upperneck 21.0153 -8.59381 1.61445
head 8.36518 -4.40893 0.60946
rclavicle -3.05134e-014 -2.94201e-014
rhumerus -53.6945 -32.8964 -34.4487
rradius 132.07
rwrist -21.606
rhand 14.2273 1.38634
rfingers 7.12502
rthumb 39.1238 -24.0981
lclavicle -3.05134e-014 -2.94201e-014
lhumerus -53.3534 9.89407 72.0161
lradius 49.2899
lwrist 13.0662
lhand -11.2503 52.4643
lfingers 7.12502
lthumb 14.7793 81.9173
rfemur -15.7429 -15.4162 19.9128
rtibia 49.1883
rfoot -20.843 -19.2149
rtoes 9.88425
lfemur -8.97251 2.15174 -25.5052
ltibia 32.5948
lfoot -18.3728 19.9734
ltoes 2.60485
576
root 1.44103 17.9003 5.10894 -2.85921 -31.4909 361.041
lowerback 18.7764 -2.29721 -4.28547
upperback 0.581893 -3.75445 2.30394
thorax -9.46656 -1.55167 5.95794
lowerneck -8.67639 -6.04562 -6.78989
upperneck 20.9892 -7.80788 1.94092
head 8.29014 -4.10134 0.990606
rclavicle 4.96962e-017 3.57812e-015
rhumerus -51.2446 -30.8909 -36.5654
rradius 134.35
rwrist -18.0393
rhand 14.3475 1.91479
rfingers 7.12502
rthumb 39.2371 -23.5369
lclavicle 4.96962e-017 3.57812e-015
lhumerus -54.2915 11.2236 71.414
lradius 49.1474
lwrist 12.8367
lhand -11.2032 52.4356
lfingers 7.12502
lthumb 14.8247 81.8853
rfemur -15.5264 -15.2259 19.9354
rtibia 49.0068
rfoot -21.5341 -17.907
rtoes 12.9533
lfemur -9.19081 2.44014 -25.4083
ltibia 32.7717
lfoot -18.4416 20.2863
ltoes 1.51123
577
root 1.42503 17.8979 5.09814 -2.72569 -32.5113 360.758
lowerback 18.7581 -2.11283 -3.68426
upperback 0.662475 -3.40952 2.00628
thorax -9.46445 -1.42307 5.19403
lowerneck -8.84982 -6.38934 -5.95972
upperneck 20.9681 -8.41213 1.92369
head 8.30083 -4.32218 0.781822
rclavicle 4.76586e-014 -2.46493e-014
rhumerus -51.1092 -29.8099 -38.1869
rradius 137.023
rwrist -14.8761
rhand 12.7696 1.85668
rfingers 7.12502
rthumb 37.7483 -24.0106
lclavicle 4.76586e-014 -2.46493e-014
lhumerus -53.5277 10.2882 71.1855
lradius 48.8949
lwrist 12.5808
lhand -11.118 52.3848
lfingers 7.12502
lthumb 14.9069 81.8284
rfemur -15.4105 -15.1197 20.4149
rtibia 48.6608
rfoot -20.5133 -18.5767
rtoes 7.90309
lfemur -9.21742 2.82472 -25.0594
ltibia 33.0037
lfoot -18.5098 20.8257
ltoes 0.643833
578
root 1.40767 17.8944 5.09844 -2.68176 -33.8094 360.468
lowerback 18.8339 -1.93867 -3.47547
upperback 0.644512 -3.13178 2.0696
thorax -9.56488 -1.29465 5.07979
lowerneck -8.88324 -6.54625 -5.8578
upperneck 21.0119 -8.64739 1.90203
head 8.32573 -4.4284 0.730955
rclavicle 2.39039e-014 6.75868e-015
rhumerus -50.2272 -28.0577 -40.15
rradius 139.323
rwrist -10.8476
rhand 11.9099 2.19979
rfingers 7.12502
rthumb 36.9355 -23.8813
lclavicle 2.39039e-014 6.75868e-015
lhumerus -53.452 10.0767 71.2308
lradius 48.9493
lwrist 12.3346
lhand -11.0963 52.2354
lfingers 7.12502
lthumb 14.9277 81.6775
rfemur -15.1502 -14.7974 20.8241
rtibia 48.2941
rfoot -20.2598 -18.6953
rtoes 4.84566
lfemur -9.08219 3.17249 -24.7349
ltibia 33.2154
lfoot -19.2313 21.3326
ltoes 2.76471
579
root 1.38642 17.8977 5.08871 -2.60246 -34.9893 360.371
lowerback 18.9548 -1.79449 -3.59351
upperback 0.624787 -2.9631 2.1535
thorax -9.66208 -1.20301 5.20513
lowerneck -9.33751 -6.61427 -5.69743
upperneck 21.1605 -8.75518 1.92421
head 8.45595 -4.45913 0.6819
rclavicle -6.56983e-014 -1.86858e-014
rhumerus -49.1169 -26.148 -42.3692
rradius 141.289
rwrist -6.72811
rhand 11.0431 2.54894
rfingers 7.12502
rthumb 36.115 -23.7392
lclavicle -6.56983e-014 -1.86858e-014
lhumerus -53.1895 9.93317 71.375
lradius 48.8649
lwrist 12.2573
lhand -11.2393 52.1567
lfingers 7.12502
lthumb 14.7899 81.6089
rfemur -15.0413 -14.3656 21.1129
rtibia 47.8591
rfoot -20.2433 -18.44
rtoes 3.88989
lfemur -9.15229 3.21491 -24.5665
ltibia 33.4002
lfoot -20.0683 21.8998
ltoes 4.79856
580
root 1.35832 17.8926 5.10248 -2.91866 -35.9403 361.009
lowerback 18.678 -1.83888 -4.05882
upperback 0.559601 -3.13203 1.96274
thorax -9.54763 -1.27017 5.28988
lowerneck -9.33757 -6.52533 -5.53782
upperneck 21.2494 -8.66894 1.91692
head 8.47381 -4.40969 0.661966
rclavicle -1.02573e-013 3.97569e-015
rhumerus -48.2373 -23.4939 -44.7396
rradius 143.049
rwrist -2.39053
rhand 9.81086 2.90445
rfingers 7.12502
rthumb 34.9469 -23.664
lclavicle -1.02573e-013 3.97569e-015
lhumerus -53.1678 10.0261 71.1123
lradius 48.6749
lwrist 12.0813
lhand -11.2897 52.1686
lfingers 7.12502
lthumb 14.7414 81.6245
rfemur -14.8021 -14.2206 20.4949
rtibia 47.4548
rfoot -20.9761 -17.3429
rtoes 5.92682
lfemur -9.01393 3.41658 -25.1101
ltibia 33.4302
lfoot -19.7762 22.4947
ltoes 2.42653
581
root 1.33792 17.8864 5.0938 -3.02872 -36.7637 361.338
lowerback 18.669 -1.91412 -4.30005
upperback 0.421416 -3.29244 1.87735
thorax -9.66936 -1.32939 5.38006
lowerneck -9.31443 -6.51591 -5.44336
upperneck 21.372 -8.67184 1.84998
head 8.50339 -4.41336 0.623014
rclavicle -2.21645e-014 -2.8625e-014
rhumerus -47.5541 -20.285 -47.3466
rradius 144.542
rwrist 2.63442
rhand 8.40549 3.40111
rfingers 7.12502
rthumb 33.6125 -23.4678
lclavicle -2.21645e-014 -2.8625e-014
lhumerus -53.0815 10.0655 70.8971
lradius 48.5165
lwrist 12.0317
lhand -11.1931 52.343
lfingers 7.12502
lthumb 14.8345 81.7919
rfemur -14.7297 -13.9849 20.3118
rtibia 46.997
rfoot -22.3204 -16.4259
rtoes 10.8868
lfemur -9.08355 3.58758 -25.3115
ltibia 33.5171
lfoot -19.3395 22.8937
ltoes 1.40937
582
root 1.31598 17.8815 5.08754 -3.30331 -37.6025 361.766
lowerback 18.5657 -2.0337 -4.67065
upperback 0.365962 -3.52565 1.89166
thorax -9.62259 -1.42392 5.66206
lowerneck -9.10854 -6.47383 -5.81785
upperneck 21.2252 -8.5978 2.02529
head 8.43984 -4.39521 0.758135
rclavicle -1.59028e-014 -7.95139e-016
rhumerus -46.7925 -16.6069 -50.2746
rradius 145.647
rwrist 7.61215
rhand 7.13318 3.76591
rfingers 7.12502
rthumb 32.4025 -23.3585
lclavicle -1.59028e-014 -7.95139e-016
lhumerus -53.0398 10.4003 70.8446
lradius 48.3735
lwrist 12.2315
lhand -11.4414 52.5977
lfingers 7.12502
lthumb 14.5953 82.0641
rfemur -14.5844 -14.0001 20.0144
rtibia 46.4935
rfoot -22.9166 -15.5822
rtoes 13.7452
lfemur -9.02915 3.86632 -25.5505
ltibia 33.6502
lfoot -18.878 23.0211
ltoes 1.59318
583
root 1.29413 17.8775 5.078 -3.23639 -38.5789 361.632
lowerback 18.5691 -2.27256 -4.68303
upperback 0.184371 -3.83058 2.06318
thorax -9.7749 -1.55325 5.94441
lowerneck -8.75526 -6.30774 -6.163
upperneck 21.2073 -8.35268 2.08277
head 8.37825 -4.31003 0.871126
rclavicle 5.69518e-014 -3.10104e-014
rhumerus -46.173 -12.3703 -53.3969
rradius 146.435
rwrist 11.9065
rhand 6.00819 3.75419
rfingers 7.12502
rthumb 31.3311 -23.5836
lclavicle 5.69518e-014 -3.10104e-014
lhumerus -53.4544 10.9366 70.673
lradius 48.2133
lwrist 12.2554
lhand -11.517 52.8175
lfingers 7.12502
lthumb 14.5224 82.2892
rfemur -14.4406 -13.8201 20.3448
rtibia 45.8951
rfoot -21.6587 -16.0152
rtoes 7.88181
lfemur -9.1405 4.08146 -25.3008
ltibia 34.0095
lfoot -20.0625 23.4841
ltoes 1.74017
584
root 1.2671 17.8729 5.06839 -3.14978 -39.8982 361.231
lowerback 18.93 -2.30147 -4.67863
upperback -0.0386926 -3.86411 2.28561
thorax -10.207 -1.53701 6.23695
lowerneck -8.54457 -6.14813 -5.97426
upperneck 21.4506 -8.13113 1.76564
head 8.38961 -4.23065 0.763205
rclavicle -7.62836e-014 1.70955e-014
rhumerus -46.2073 -8.02263 -56.2628
rradius 146.918
rwrist 15.7456
rhand 4.58613 3.72822
rfingers 7.12502
rthumb 29.9751 -23.8636
lclavicle -7.62836e-014 1.70955e-014
lhumerus -53.9507 11.2955 70.4324
lradius 48.1113
lwrist 11.8729
lhand -11.2006 52.8162
lfingers 7.12502
lthumb 14.8273 82.2657
rfemur -14.1533 -13.1918 20.9938
rtibia 45.2757
rfoot -20.3964 -16.8321
rtoes 1.90453
lfemur -9.12444 4.41879 -24.8523
ltibia 34.51
lfoot -20.3802 24.3345
ltoes -0.964029
585
root 1.24222 17.8671 5.05791 -3.0361 -40.9838 360.877
lowerback 19.0682 -2.28488 -4.52675
upperback -0.0797063 -3.8039 2.39821
thorax -10.3408 -1.50583 6.27298
lowerneck -8.3534 -6.09383 -5.82787
upperneck 21.3793 -8.10241 1.79059
head 8.32319 -4.20809 0.758486
rclavicle 2.9271e-014 3.97569e-015
rhumerus -46.4141 -4.47306 -58.9751
rradius 146.87
rwrist 19.0335
rhand 3.72189 4.05001
rfingers 7.12502
rthumb 29.1501 -23.6878
lclavicle 2.9271e-014 3.97569e-015
lhumerus -53.8664 11.2254 70.3892
lradius 48.0452
lwrist 11.9367
lhand -11.2193 52.9068
lfingers 7.12502
lthumb 14.8092 82.3577
rfemur -13.757 -12.9097 21.4776
rtibia 44.6453
rfoot -20.9877 -16.3299
rtoes 6.5426
lfemur -9.21396 4.82304 -24.4299
ltibia 35.1691
lfoot -20.1645 24.8531
ltoes -4.32389
586
root 1.2211 17.8705 5.04263 -2.80567 -41.9844 360.502
lowerback 18.913 -2.3309 -4.17622
upperback 0.0377905 -3.78138 2.40462
thorax -10.1464 -1.526 6.05508
lowerneck -8.27997 -6.1133 -5.67484
upperneck 21.0831 -8.18052 1.93757
head 8.21192 -4.2193 0.781142
rclavicle -6.90777e-015 -2.34566e-014
rhumerus -46.345 -1.35424 -62.0173
rradius 146.177
rwrist 21.5622
rhand 2.63115 4.4316
rfingers 7.12502
rthumb 28.108 -23.4821
lclavicle -6.90777e-015 -2.34566e-014
lhumerus -53.3435 10.9194 70.4541
lradius 47.9483
lwrist 12.3373
lhand -10.9397 53.6851
lfingers 7.12502
lthumb 15.0786 83.1159
rfemur -13.4455 -12.3909 21.9743
rtibia 44.0819
rfoot -22.0582 -15.4709
rtoes 12.8321
lfemur -9.43939 5.10635 -23.9176
ltibia 35.8182
lfoot -19.9443 24.7
ltoes -4.15214
587
root 1.19669 17.8784 5.02883 -2.54334 -43.1144 360.019
lowerback 18.8688 -2.58633 -4.02669
upperback 0.0400678 -4.06383 2.64322
thorax -10.0747 -1.666 6.30335
lowerneck -8.07212 -5.83196 -6.03618
upperneck 20.9688 -7.75549 1.97765
head 8.13599 -4.04776 0.904659
rclavicle 8.39368e-014 1.11319e-014
rhumerus -46.1176 2.71799 -64.9775
rradius 145.184
rwrist 23.2281
rhand 1.53806 4.3606
rfingers 7.12502
rthumb 27.0627 -23.7201
lclavicle 8.39368e-014 1.11319e-014
lhumerus -53.4699 11.7005 70.1898
lradius 47.8478
lwrist 12.2786
lhand -10.7772 53.9885
lfingers 7.12502
lthumb 15.2351 83.4075
rfemur -13.1386 -11.6755 22.5539
rtibia 43.5811
rfoot -21.8544 -15.5912
rtoes 10.8978
lfemur -9.56883 5.07449 -23.3394
ltibia 36.4536
lfoot -19.8592 24.5435
ltoes -1.93089
